<svg width="8" height="11" viewBox="0 0 8 11" fill="none" xmlns="http://www.w3.org/2000/svg">
<mask id="mask0_2_187" style="mask-type:alpha" maskUnits="userSpaceOnUse" x="0" y="0" width="8" height="11">
<path fill-rule="evenodd" clip-rule="evenodd" d="M0.500122 0.300301H7.50103V10.7091H0.500122V0.300301Z" fill="white"/>
</mask>
<g mask="url(#mask0_2_187)">
<path fill-rule="evenodd" clip-rule="evenodd" d="M7.39482 5.1781C7.35082 5.0421 7.28282 4.9131 7.16283 4.8181L1.71883 0.464103C1.39583 0.206103 0.924825 0.257103 0.664825 0.581103C0.405825 0.905103 0.457825 1.3761 0.781825 1.6351L5.61882 5.5041L0.781825 9.3731C0.457825 9.6321 0.405825 10.1051 0.664825 10.4281C0.812825 10.6131 1.03083 10.7091 1.24983 10.7091C1.41583 10.7091 1.58083 10.6561 1.71883 10.5451L7.22883 6.1381C7.52283 5.9031 7.58082 5.4941 7.39482 5.1781Z" fill="#35393D"/>
</g>
</svg>
