<svg width="30" height="30" viewBox="0 0 30 30" fill="none" xmlns="http://www.w3.org/2000/svg">
<path d="M22.1036 10.7069H19.8054C19.55 10.7069 19.2946 10.591 19.1089 10.4055L18.1804 9.36218C17.9018 9.06078 17.4607 9.0376 17.1357 9.29263L17.0661 9.36218L16.2768 10.2664C16.0214 10.5678 15.6268 10.7301 15.2321 10.7301H2.67321C2.325 11.7502 2.09286 12.8399 2 13.9296H13.8857C14.0946 13.9296 14.3036 13.8368 14.4429 13.6977L15.5571 12.5385C15.6964 12.3994 15.8821 12.3066 16.0911 12.3066H16.1375C16.3464 12.3066 16.5554 12.3994 16.6946 12.5617L17.6232 13.605C17.8089 13.8136 18.0643 13.9296 18.3196 13.9296H28C27.9071 12.8399 27.675 11.7502 27.3268 10.7301H22.1036V10.7069ZM14.4893 17.1059L13.5607 16.0625C13.2821 15.7611 12.8411 15.738 12.5161 15.993L12.4464 16.0625L11.6339 16.9667C11.3786 17.2681 11.0071 17.4304 10.6125 17.4304H2.18571C2.39464 18.5433 2.76607 19.633 3.25357 20.6763H9.17321C9.38214 20.6763 9.56786 20.5835 9.73036 20.4444L10.8446 19.2852C10.9839 19.1461 11.1696 19.0534 11.3786 19.0534H11.425C11.6339 19.0534 11.8429 19.1461 11.9821 19.3084L12.9107 20.3517C13.0964 20.5604 13.3518 20.6763 13.6071 20.6763H26.7464C27.2339 19.6562 27.6054 18.5665 27.8143 17.4304H15.1857C14.9071 17.4304 14.6518 17.3145 14.4893 17.1059ZM19.0393 6.99735L20.1536 5.83811C20.2929 5.69901 20.4786 5.60627 20.6875 5.60627H20.7339C20.9429 5.60627 21.1518 5.69901 21.2911 5.83811L22.2196 6.88142C22.4054 7.09009 22.6607 7.18282 22.9161 7.18282H25.4232C21.0589 1.43303 12.8643 0.296986 7.08393 4.63251C6.13214 5.35124 5.27321 6.20907 4.53036 7.18282H18.4821C18.7143 7.22919 18.9 7.13645 19.0393 6.99735ZM10.0554 23.8758C9.77679 23.8758 9.52143 23.7598 9.35893 23.5744L8.43036 22.5311C8.15179 22.2297 7.6875 22.2065 7.38571 22.4847L7.33929 22.5311L6.52679 23.4353C6.27143 23.7367 5.9 23.899 5.50536 23.899H5.45893C10.3571 29.1387 18.6446 29.3937 23.9143 24.4554C24.1232 24.2699 24.3089 24.0612 24.5179 23.8526H10.0554V23.8758Z" fill="black"/>
</svg>
