<svg width="18" height="18" viewBox="0 0 18 18" fill="none" xmlns="http://www.w3.org/2000/svg">
  <path d="M9 0C4.03012 0 0 4.03012 0 9C0 13.9699 4.03012 18 9 18C13.9699 18 18 13.9699 18 9C18 4.03012 13.9699 0 9 0Z" fill="white"/>
  <path d="M13.9179 6.02785H12.3268C12.15 6.02785 11.9732 5.94759 11.8446 5.81918L11.2018 5.09689C11.0089 4.88823 10.7036 4.87218 10.4786 5.04874L10.4304 5.09689L9.88393 5.72288C9.70714 5.93154 9.43393 6.0439 9.16071 6.0439H0.466071C0.225 6.75014 0.0642857 7.50453 0 8.25892H8.22857C8.37321 8.25892 8.51786 8.19472 8.61429 8.09841L9.38571 7.29587C9.48214 7.19956 9.61071 7.13536 9.75536 7.13536H9.7875C9.93214 7.13536 10.0768 7.19956 10.1732 7.31192L10.8161 8.03421C10.9446 8.17867 11.1214 8.25892 11.2982 8.25892H18C17.9357 7.50453 17.775 6.75014 17.5339 6.0439H13.9179V6.02785ZM8.64643 10.4579L8.00357 9.73561C7.81071 9.52694 7.50536 9.51089 7.28036 9.68745L7.23214 9.73561L6.66964 10.3616C6.49286 10.5703 6.23571 10.6826 5.9625 10.6826H0.128571C0.273214 11.4531 0.530357 12.2074 0.867857 12.9297H4.96607C5.11071 12.9297 5.23929 12.8655 5.35179 12.7692L6.12321 11.9667C6.21964 11.8704 6.34821 11.8062 6.49286 11.8062H6.525C6.66964 11.8062 6.81429 11.8704 6.91071 11.9827L7.55357 12.705C7.68214 12.8495 7.85893 12.9297 8.03571 12.9297H17.1321C17.4696 12.2235 17.7268 11.4691 17.8714 10.6826H9.12857C8.93571 10.6826 8.75893 10.6024 8.64643 10.4579ZM11.7964 3.4597L12.5679 2.65716C12.6643 2.56085 12.7929 2.49665 12.9375 2.49665H12.9696C13.1143 2.49665 13.2589 2.56085 13.3554 2.65716L13.9982 3.37945C14.1268 3.52391 14.3036 3.58811 14.4804 3.58811H16.2161C13.1946 -0.392515 7.52143 -1.17901 3.51964 1.82251C2.86071 2.32009 2.26607 2.91397 1.75179 3.58811H11.4107C11.5714 3.62021 11.7 3.55601 11.7964 3.4597ZM5.57679 15.1448C5.38393 15.1448 5.20714 15.0645 5.09464 14.9361L4.45179 14.2138C4.25893 14.0051 3.9375 13.9891 3.72857 14.1817L3.69643 14.2138L3.13393 14.8398C2.95714 15.0485 2.7 15.1608 2.42679 15.1608H2.39464C5.78571 18.7883 11.5232 18.9649 15.1714 15.546C15.3161 15.4176 15.4446 15.2732 15.5893 15.1287H5.57679V15.1448Z" fill="black"/>
</svg>
