<svg width="67" height="70" viewBox="0 0 67 70" fill="none" xmlns="http://www.w3.org/2000/svg">
    <rect x="1" y="1" width="65" height="68" rx="9" stroke="#35393D" stroke-width="2"/>
    <path d="M27.2969 33.1094C27.1667 32.6875 26.987 32.3099 26.7578 31.9766C26.5339 31.638 26.263 31.349 25.9453 31.1094C25.6328 30.8698 25.2734 30.6901 24.8672 30.5703C24.4609 30.4453 24.0182 30.3828 23.5391 30.3828C22.6797 30.3828 21.9141 30.599 21.2422 31.0313C20.5703 31.4635 20.0417 32.099 19.6563 32.9375C19.276 33.7708 19.0859 34.7865 19.0859 35.9844C19.0859 37.1927 19.276 38.2161 19.6563 39.0547C20.0365 39.8932 20.5651 40.5312 21.2422 40.9687C21.9193 41.401 22.7057 41.6172 23.6016 41.6172C24.4141 41.6172 25.1172 41.4609 25.7109 41.1484C26.3099 40.8359 26.7708 40.3932 27.0938 39.8203C27.4167 39.2422 27.5781 38.5651 27.5781 37.7891L28.2344 37.8906H23.8906V35.625H30.3828V37.5469C30.3828 38.9167 30.0911 40.1016 29.5078 41.1016C28.9245 42.1016 28.1224 42.8724 27.1016 43.4141C26.0807 43.9505 24.9089 44.2187 23.5859 44.2187C22.112 44.2187 20.8177 43.888 19.7031 43.2266C18.5938 42.5599 17.7266 41.6146 17.1016 40.3906C16.4818 39.1615 16.1719 37.7031 16.1719 36.0156C16.1719 34.724 16.3542 33.5703 16.7188 32.5547C17.0885 31.5391 17.6042 30.6771 18.2656 29.9687C18.9271 29.2552 19.7031 28.7135 20.5938 28.3437C21.4844 27.9687 22.4531 27.7812 23.5 27.7812C24.3854 27.7812 25.2109 27.9115 25.9766 28.1719C26.7422 28.4271 27.4219 28.7917 28.0156 29.2656C28.6146 29.7396 29.1068 30.3021 29.4922 30.9531C29.8776 31.6042 30.1302 32.3229 30.25 33.1094H27.2969ZM33.1855 28H36.7324L41.4824 39.5937H41.6699L46.4199 28H49.9668V44H47.1855V33.0078H47.0371L42.6152 43.9531H40.5371L36.1152 32.9844H35.9668V44H33.1855V28Z" fill="#35393D"/>
</svg>
