<svg width="31" height="31" viewBox="0 0 31 31" fill="none" xmlns="http://www.w3.org/2000/svg">
<path d="M13.3214 25.8831L13.3072 25.8809L13.293 25.879C12.8876 25.8257 12.476 25.9086 12.1228 26.1148L12.1098 26.1224L12.0971 26.1304L7.71738 28.8672L7.71692 28.8675C7.69165 28.8833 7.6626 28.892 7.6328 28.8928C7.603 28.8936 7.57353 28.8864 7.54746 28.872C7.52139 28.8575 7.49967 28.8363 7.48455 28.8106C7.46943 28.785 7.46147 28.7557 7.46149 28.7259V28.7252V24.6103C7.46515 24.3311 7.40605 24.0547 7.28849 23.8013C7.16932 23.5445 6.99321 23.3183 6.77354 23.1397L6.76366 23.1317L6.75357 23.1239C3.78632 20.8349 2.10712 17.5265 2.10712 14.0706C2.10712 7.54929 8.04793 2.10718 15.5006 2.10718C22.9539 2.10718 28.892 7.55114 28.892 14.088C28.892 20.6093 22.9511 26.0514 15.4996 26.0514C14.7434 26.0514 14.0143 25.9945 13.3214 25.8831Z" stroke="#35393D" stroke-width="2"/>
<path d="M20.8973 12.8014C20.8973 15.7822 18.4808 18.1987 15.5 18.1987C12.5191 18.1987 10.1027 15.7822 10.1027 12.8014" stroke="#35393D" stroke-width="1.5" stroke-linecap="round"/>
</svg>
