<svg width="31" height="31" viewBox="0 0 31 31" fill="none" xmlns="http://www.w3.org/2000/svg">
    <defs>
        <linearGradient id="paint0_linear_329_888" x1="1.10718" y1="1.10718" x2="8.19269"
            y2="35.0438" gradientUnits="userSpaceOnUse">
            <stop stop-color="#DBFF00" />
            <stop offset="1" stop-color="#FAFF00" />
        </linearGradient>
    </defs>
    <path
        d="M13.3214 25.8831L13.3073 25.8809L13.2931 25.879C12.8877 25.8257 12.476 25.9086 12.1229 26.1148L12.1099 26.1224L12.0972 26.1304L7.71744 28.8672L7.71698 28.8675C7.69171 28.8833 7.66266 28.892 7.63286 28.8928C7.60306 28.8936 7.57359 28.8864 7.54752 28.872C7.52145 28.8575 7.49973 28.8363 7.48461 28.8106C7.46949 28.785 7.46153 28.7557 7.46155 28.7259V28.7252V24.6103C7.46521 24.3311 7.40611 24.0547 7.28855 23.8013C7.16938 23.5445 6.99327 23.3183 6.7736 23.1397L6.76372 23.1317L6.75363 23.1239C3.78638 20.8349 2.10718 17.5265 2.10718 14.0706C2.10718 7.54929 8.04799 2.10718 15.5006 2.10718C22.954 2.10718 28.8921 7.55114 28.8921 14.088C28.8921 20.6093 22.9512 26.0514 15.4996 26.0514C14.7435 26.0514 14.0143 25.9945 13.3214 25.8831Z"
        fill="url(#paint0_linear_329_888)" stroke="#35393D" stroke-width="2" />
    <path
        d="M20.8973 12.8014C20.8973 15.7822 18.4808 18.1987 15.5 18.1987C12.5191 18.1987 10.1027 15.7822 10.1027 12.8014"
        stroke="#35393D" stroke-width="1.5" stroke-linecap="round" />
</svg>
