<svg width="31" height="31" viewBox="0 0 31 31" fill="none" xmlns="http://www.w3.org/2000/svg">
    <defs>
        <linearGradient id="paint0_linear_329_888" x1="1.10718" y1="1.10718" x2="8.23211" y2="34.5127" gradientUnits="userSpaceOnUse">
            <stop stop-color="#8FFA3B"/>
            <stop offset="1" stop-color="#F2DD21"/>
        </linearGradient>
    </defs>
    <path d="M15.5006 1.10718C23.4037 1.10718 29.8921 6.90158 29.8921 14.088C29.8921 21.2601 23.3996 27.0514 15.4996 27.0514C14.6936 27.0514 13.9112 26.9908 13.1627 26.8705C12.9772 26.8461 12.7887 26.884 12.6271 26.9784L8.24737 29.7152C8.07068 29.8258 7.86762 29.887 7.65928 29.8925C7.45094 29.898 7.24493 29.8476 7.06265 29.7465C6.88037 29.6455 6.72849 29.4975 6.62278 29.3178C6.51707 29.1382 6.4614 28.9336 6.46155 28.7252V24.6025C6.46408 24.4713 6.43669 24.3413 6.38147 24.2223C6.32624 24.1033 6.24463 23.9984 6.14284 23.9157C2.94954 21.4524 1.10718 17.8602 1.10718 14.0706C1.10718 6.89849 7.59966 1.10718 15.5006 1.10718Z" fill="url(#paint0_linear_329_888)"/>
    <path d="M20.8973 12.8014C20.8973 15.7822 18.4808 18.1987 15.5 18.1987C12.5191 18.1987 10.1027 15.7822 10.1027 12.8014" stroke="#35393D" stroke-width="1.5" stroke-linecap="round"/>
</svg>