<svg width="10" height="11" viewBox="0 0 10 11" fill="none" xmlns="http://www.w3.org/2000/svg">
    <path d="M7.5 1.53857H0.961538C0.706616 1.53888 0.462223 1.64028 0.281965 1.82054C0.101708 2.0008 0.000305357 2.24519 0 2.50011V9.80781C0 10.3382 0.431538 10.7693 0.961538 10.7693H7.5C8.03039 10.7693 8.46154 10.3382 8.46154 9.80781V2.50011C8.46154 1.97011 8.03039 1.53857 7.5 1.53857ZM7.69231 9.80781C7.69231 9.91357 7.60577 10.0001 7.5 10.0001H0.961538C0.910535 10.0001 0.861621 9.97985 0.825556 9.94379C0.789492 9.90772 0.769231 9.85881 0.769231 9.80781V2.50011C0.769231 2.44911 0.789492 2.4002 0.825556 2.36413C0.861621 2.32807 0.910535 2.30781 0.961538 2.30781H7.5C7.551 2.30781 7.59992 2.32807 7.63598 2.36413C7.67205 2.4002 7.69231 2.44911 7.69231 2.50011V9.80781Z" fill="black"/>
    <path d="M9.03846 0H2.5C2.398 0 2.30017 0.0405218 2.22804 0.112651C2.15591 0.184781 2.11539 0.282609 2.11539 0.384615C2.11539 0.486622 2.15591 0.58445 2.22804 0.656579C2.30017 0.728709 2.398 0.769231 2.5 0.769231H9.03846C9.08947 0.769231 9.13838 0.789492 9.17445 0.825556C9.21051 0.861621 9.23077 0.910535 9.23077 0.961538V8.26923C9.23077 8.37124 9.27129 8.46907 9.34342 8.54119C9.41555 8.61332 9.51338 8.65385 9.61539 8.65385C9.71739 8.65385 9.81522 8.61332 9.88735 8.54119C9.95948 8.46907 10 8.37124 10 8.26923V0.961538C10 0.431538 9.56885 0 9.03846 0Z" fill="black"/>
    <path d="M6.15385 3.55774H2.3077C2.20569 3.55774 2.10786 3.59826 2.03573 3.67039C1.9636 3.74252 1.92308 3.84035 1.92308 3.94235C1.92308 4.04436 1.9636 4.14219 2.03573 4.21432C2.10786 4.28645 2.20569 4.32697 2.3077 4.32697H6.15385C6.25586 4.32697 6.35368 4.28645 6.42581 4.21432C6.49794 4.14219 6.53847 4.04436 6.53847 3.94235C6.53847 3.84035 6.49794 3.74252 6.42581 3.67039C6.35368 3.59826 6.25586 3.55774 6.15385 3.55774ZM6.15385 5.48082H2.3077C2.20569 5.48082 2.10786 5.52134 2.03573 5.59347C1.9636 5.6656 1.92308 5.76343 1.92308 5.86543C1.92308 5.96744 1.9636 6.06527 2.03573 6.1374C2.10786 6.20953 2.20569 6.25005 2.3077 6.25005H6.15385C6.25586 6.25005 6.35368 6.20953 6.42581 6.1374C6.49794 6.06527 6.53847 5.96744 6.53847 5.86543C6.53847 5.76343 6.49794 5.6656 6.42581 5.59347C6.35368 5.52134 6.25586 5.48082 6.15385 5.48082ZM4.61539 7.38774H2.3077C2.20569 7.38774 2.10786 7.42826 2.03573 7.50039C1.9636 7.57252 1.92308 7.67035 1.92308 7.77235C1.92308 7.87436 1.9636 7.97219 2.03573 8.04432C2.10786 8.11645 2.20569 8.15697 2.3077 8.15697H4.61539C4.71739 8.15697 4.81522 8.11645 4.88735 8.04432C4.95948 7.97219 5 7.87436 5 7.77235C5 7.67035 4.95948 7.57252 4.88735 7.50039C4.81522 7.42826 4.71739 7.38774 4.61539 7.38774Z" fill="black"/>
</svg>
