<svg width="30" height="29" viewBox="0 0 30 29" fill="none" xmlns="http://www.w3.org/2000/svg">

    <defs>
        <linearGradient id="paint0_linear_329_1024" x1="0" y1="0" x2="6.80487" y2="34.0105"
            gradientUnits="userSpaceOnUse">
            <stop stop-color="#DBFF00" />
            <stop offset="1" stop-color="#FAFF00" />
        </linearGradient>
    </defs>
    <rect x="1" y="1" width="28" height="26.75" rx="5" fill="url(#paint0_linear_329_1024)"
        stroke="black" stroke-width="2" />
    <path
        d="M13.3057 14.46V17.0625C13.2178 17.1927 13.0778 17.3392 12.8857 17.502C12.6937 17.6615 12.4284 17.8014 12.0898 17.9219C11.7546 18.0391 11.3216 18.0977 10.791 18.0977C10.3581 18.0977 9.95931 18.0228 9.59473 17.873C9.2334 17.7201 8.91927 17.4987 8.65234 17.209C8.38867 16.916 8.18359 16.5612 8.03711 16.1445C7.89388 15.7246 7.82227 15.2493 7.82227 14.7188V14.167C7.82227 13.6364 7.88411 13.1628 8.00781 12.7461C8.13477 12.3294 8.32031 11.9762 8.56445 11.6865C8.80859 11.3936 9.10807 11.1722 9.46289 11.0225C9.81771 10.8695 10.2246 10.793 10.6836 10.793C11.2272 10.793 11.6813 10.8874 12.0459 11.0762C12.4137 11.2617 12.7002 11.5189 12.9053 11.8477C13.1136 12.1764 13.2471 12.5508 13.3057 12.9707H12.3633C12.321 12.7135 12.2363 12.4792 12.1094 12.2676C11.9857 12.056 11.8083 11.8867 11.5771 11.7598C11.346 11.6296 11.0482 11.5645 10.6836 11.5645C10.3548 11.5645 10.07 11.6247 9.8291 11.7451C9.58822 11.8656 9.38965 12.0381 9.2334 12.2627C9.07715 12.4873 8.95996 12.7591 8.88184 13.0781C8.80697 13.3971 8.76953 13.7568 8.76953 14.1572V14.7188C8.76953 15.1289 8.81673 15.4951 8.91113 15.8174C9.00879 16.1396 9.14714 16.4147 9.32617 16.6426C9.50521 16.8672 9.71842 17.0381 9.96582 17.1553C10.2165 17.2725 10.4932 17.3311 10.7959 17.3311C11.1312 17.3311 11.403 17.3034 11.6113 17.248C11.8197 17.1895 11.9824 17.1211 12.0996 17.043C12.2168 16.9616 12.3063 16.8851 12.3682 16.8135V15.2217H10.7227V14.46H13.3057ZM15.166 10.8906H16.0791L18.4082 16.6865L20.7324 10.8906H21.6504L18.7598 18H18.0469L15.166 10.8906ZM14.8682 10.8906H15.6738L15.8057 15.2266V18H14.8682V10.8906ZM21.1377 10.8906H21.9434V18H21.0059V15.2266L21.1377 10.8906Z"
        fill="black" />
</svg>
