<svg width="30" height="29" viewBox="0 0 30 29" fill="none" xmlns="http://www.w3.org/2000/svg">
    <defs>
        <linearGradient id="paint0_linear_325_977" x1="0" y1="0" x2="6.84371" y2="33.483" gradientUnits="userSpaceOnUse">
            <stop stop-color="#8FFA3B"/>
            <stop offset="1" stop-color="#F2DD21"/>
        </linearGradient>
    </defs>
    <rect width="30" height="28.75" rx="6" fill="url(#paint0_linear_325_977)"/>
    <path d="M13.4424 14.3232V17.0918C13.3382 17.2253 13.1738 17.3701 12.9492 17.5264C12.7279 17.6826 12.4382 17.8177 12.0801 17.9316C11.722 18.0423 11.2826 18.0977 10.7617 18.0977C10.3092 18.0977 9.89583 18.0228 9.52148 17.873C9.14714 17.7201 8.82487 17.4971 8.55469 17.2041C8.28451 16.9111 8.07617 16.5531 7.92969 16.1299C7.7832 15.7067 7.70996 15.2233 7.70996 14.6797V14.2109C7.70996 13.6673 7.77832 13.1839 7.91504 12.7607C8.05501 12.3376 8.25358 11.9795 8.51074 11.6865C8.77116 11.3936 9.08203 11.1706 9.44336 11.0176C9.80794 10.8646 10.2148 10.7881 10.6641 10.7881C11.2663 10.7881 11.7611 10.8874 12.1484 11.0859C12.5391 11.2845 12.8385 11.5579 13.0469 11.9062C13.2552 12.2513 13.3854 12.6484 13.4375 13.0977H12.1289C12.0931 12.8503 12.0215 12.6338 11.9141 12.4482C11.8066 12.2594 11.6536 12.113 11.4551 12.0088C11.2598 11.9014 11.0059 11.8477 10.6934 11.8477C10.4297 11.8477 10.1969 11.8997 9.99512 12.0039C9.79329 12.1081 9.62402 12.2594 9.4873 12.458C9.35059 12.6566 9.24642 12.9023 9.1748 13.1953C9.10645 13.4883 9.07227 13.8236 9.07227 14.2012V14.6797C9.07227 15.0605 9.11133 15.3991 9.18945 15.6953C9.26758 15.9883 9.37988 16.2357 9.52637 16.4375C9.67611 16.6361 9.86003 16.7874 10.0781 16.8916C10.2995 16.9925 10.5501 17.043 10.8301 17.043C11.084 17.043 11.2939 17.0218 11.46 16.9795C11.6292 16.9339 11.7643 16.8802 11.8652 16.8184C11.9661 16.7565 12.0443 16.6963 12.0996 16.6377V15.3047H10.6885V14.3232H13.4424ZM15.2979 10.8906H16.46L18.4033 16.2422L20.3418 10.8906H21.5088L18.8672 18H17.9346L15.2979 10.8906ZM14.7119 10.8906H15.8496L16.0547 15.8076V18H14.7119V10.8906ZM20.9521 10.8906H22.0947V18H20.752V15.8076L20.9521 10.8906Z" fill="black"/>
</svg>
