<svg width="67" height="67" viewBox="0 0 67 67" fill="none" xmlns="http://www.w3.org/2000/svg">
    <circle cx="33.5" cy="33.5" r="32.5" fill="#35393D" stroke="#35393D" stroke-width="2"/>
    <path d="M29.2617 33.1758V39.8203C29.0117 40.1406 28.6172 40.4883 28.0781 40.8633C27.5469 41.2383 26.8516 41.5625 25.9922 41.8359C25.1328 42.1016 24.0781 42.2344 22.8281 42.2344C21.7422 42.2344 20.75 42.0547 19.8516 41.6953C18.9531 41.3281 18.1797 40.793 17.5312 40.0898C16.8828 39.3867 16.3828 38.5273 16.0312 37.5117C15.6797 36.4961 15.5039 35.3359 15.5039 34.0312V32.9062C15.5039 31.6016 15.668 30.4414 15.9961 29.4258C16.332 28.4102 16.8086 27.5508 17.4258 26.8477C18.0508 26.1445 18.7969 25.6094 19.6641 25.2422C20.5391 24.875 21.5156 24.6914 22.5938 24.6914C24.0391 24.6914 25.2266 24.9297 26.1562 25.4062C27.0938 25.8828 27.8125 26.5391 28.3125 27.375C28.8125 28.2031 29.125 29.1562 29.25 30.2344H26.1094C26.0234 29.6406 25.8516 29.1211 25.5938 28.6758C25.3359 28.2227 24.9688 27.8711 24.4922 27.6211C24.0234 27.3633 23.4141 27.2344 22.6641 27.2344C22.0312 27.2344 21.4727 27.3594 20.9883 27.6094C20.5039 27.8594 20.0977 28.2227 19.7695 28.6992C19.4414 29.1758 19.1914 29.7656 19.0195 30.4688C18.8555 31.1719 18.7734 31.9766 18.7734 32.8828V34.0312C18.7734 34.9453 18.8672 35.7578 19.0547 36.4688C19.2422 37.1719 19.5117 37.7656 19.8633 38.25C20.2227 38.7266 20.6641 39.0898 21.1875 39.3398C21.7188 39.582 22.3203 39.7031 22.9922 39.7031C23.6016 39.7031 24.1055 39.6523 24.5039 39.5508C24.9102 39.4414 25.2344 39.3125 25.4766 39.1641C25.7188 39.0156 25.9062 38.8711 26.0391 38.7305V35.5312H22.6523V33.1758H29.2617ZM33.7148 24.9375H36.5039L41.168 37.7812L45.8203 24.9375H48.6211L42.2812 42H40.043L33.7148 24.9375ZM32.3086 24.9375H35.0391L35.5312 36.7383V42H32.3086V24.9375ZM47.2852 24.9375H50.0273V42H46.8047V36.7383L47.2852 24.9375Z" fill="#FBFBFB"/>
</svg>
