<svg width="28" height="28" viewBox="0 0 28 28" fill="none" xmlns="http://www.w3.org/2000/svg">
<path d="M14 7C9.455 7 5.546 9.89369 4 14C5.546 18.1063 9.455 21 14 21C18.545 21 22.455 18.1063 24 14C22.455 9.89369 18.545 7 14 7ZM14 18.6663C11.455 18.6663 9.455 16.6137 9.455 14C9.455 11.3863 11.455 9.33369 14 9.33369C16.546 9.33369 18.545 11.3863 18.545 14C18.545 16.6137 16.546 18.6663 14 18.6663ZM14 11.2C12.455 11.2 11.273 12.4137 11.273 14C11.273 15.5863 12.455 16.8 14 16.8C15.546 16.8 16.727 15.5863 16.727 14C16.727 12.4137 15.547 11.2 14 11.2Z" fill="black"/>
</svg>
