<?xml version="1.0" encoding="UTF-8"?>
<svg width="16px" height="16px" viewBox="0 0 16 16" version="1.1" xmlns="http://www.w3.org/2000/svg" xmlns:xlink="http://www.w3.org/1999/xlink">
    <title>Shape复制</title>
    <g id="主页面" stroke="none" stroke-width="1" fill="none" fill-rule="evenodd">
        <g id="修改密码1" transform="translate(-257.000000, -355.000000)" fill="#35393D" fill-rule="nonzero">
            <path d="M264.982753,355 C260.573955,355 257,358.58184 257,363 C257,367.418323 260.573955,371 264.982753,371 C269.391551,371 272.965505,367.418323 272.965505,363 C272.965505,358.58184 269.391551,355 264.982753,355 Z M268.637055,365.615482 C268.92508,365.904866 268.92508,366.373021 268.637055,366.661668 C268.348505,366.951051 267.881149,366.951051 267.5926,366.661668 L264.982756,364.046385 L262.372171,366.661668 C262.084356,366.951051 261.617,366.951051 261.328398,366.661668 C261.040583,366.373021 261.040583,365.904866 261.328398,365.615482 L263.938766,363.000199 L261.328398,360.384191 C261.040583,360.095544 261.040583,359.627179 261.328398,359.338006 C261.616948,359.049359 262.084304,359.049359 262.372171,359.338006 L264.982756,361.954014 L267.5926,359.338006 C267.881149,359.049359 268.348505,359.049359 268.637055,359.338006 C268.92508,359.627179 268.92508,360.095544 268.637055,360.384191 L266.026686,363.000199 L268.637055,365.615482 L268.637055,365.615482 Z" id="Shape复制"></path>
        </g>
    </g>
</svg>