<svg width="30" height="30" viewBox="0 0 30 30" fill="none" xmlns="http://www.w3.org/2000/svg">
<path fill-rule="evenodd" clip-rule="evenodd" d="M6 0C2.68629 0 0 2.68629 0 6V24C0 27.3137 2.68629 30 6 30H24C27.3137 30 30 27.3137 30 24V6C30 2.68629 27.3137 0 24 0H6ZM10.3713 14.4725C9.84502 14.9838 9.88377 15.6963 10.41 16.2063L14.0463 19.8963C14.5738 20.4075 15.31 20.3675 15.8375 19.8575L19.5913 16.2463C20.1175 15.735 20.1575 15.0238 19.63 14.5125C19.1038 14.0025 18.3663 14.0413 17.84 14.5525L16.2238 16.175V4.5975C16.2238 4.43903 16.1608 4.28706 16.0488 4.175C15.9367 4.06295 15.7847 4 15.6263 4H14.3363C14.1778 4 14.0258 4.06295 13.9138 4.175C13.8017 4.28706 13.7388 4.43903 13.7388 4.5975V16.2688L12.0838 14.59C11.5575 14.0788 10.8988 13.9625 10.3713 14.4725ZM22.5 8.99875H18.75C18.4185 8.99875 18.1005 9.13044 17.8661 9.36487C17.6317 9.59929 17.5 9.91723 17.5 10.2487C17.5 10.5803 17.6317 10.8982 17.8661 11.1326C18.1005 11.3671 18.4185 11.4987 18.75 11.4987H21.25C21.5815 11.4987 21.8995 11.6304 22.1339 11.8649C22.3683 12.0993 22.5 12.4172 22.5 12.7487V21.4987C22.5 21.8303 22.3683 22.1482 22.1339 22.3826C21.8995 22.6171 21.5815 22.7487 21.25 22.7487H8.75C8.58585 22.7487 8.4233 22.7164 8.27165 22.6536C8.11999 22.5908 7.98219 22.4987 7.86612 22.3826C7.6317 22.1482 7.5 21.8303 7.5 21.4987V12.7487C7.5 12.4172 7.6317 12.0993 7.86612 11.8649C8.10054 11.6304 8.41848 11.4987 8.75 11.4987H11.25C11.5815 11.4987 11.8995 11.3671 12.1339 11.1326C12.3683 10.8982 12.5 10.5803 12.5 10.2487C12.5 9.91723 12.3683 9.59929 12.1339 9.36487C11.8995 9.13044 11.5815 8.99875 11.25 8.99875H7.5C5.97875 8.99875 5 10.0125 5 11.7262V22.5212C5 24.4787 6.1525 25.2487 7.5 25.2487H22.5C24.5037 25.2487 25 24.025 25 22.5212V11.7262C25 10.0875 23.8675 8.99875 22.5 8.99875Z" fill="black"/>
</svg>
