<svg width="80" height="74" viewBox="0 0 80 74" fill="none" xmlns="http://www.w3.org/2000/svg">
    <defs>
        <linearGradient id="paint0_linear_838_1401" x1="2.35303" y1="2.35297" x2="8.55052" y2="54.4245" gradientUnits="userSpaceOnUse">
            <stop stop-color="#DBFF00"/>
            <stop offset="1" stop-color="#FAFF00"/>
        </linearGradient>
        <linearGradient id="paint1_linear_838_1401" x1="8.85352" y1="9.33844" x2="11.0717" y2="36.4854" gradientUnits="userSpaceOnUse">
            <stop stop-color="#B3EC39"/>
            <stop offset="1" stop-color="#E1E432"/>
        </linearGradient>
    </defs>
    <path opacity="0.1" d="M5.2949 2.35297H74.7052C76.3299 2.35297 77.6471 3.67015 77.6471 5.29484V36.3497C77.6471 37.9744 76.3299 39.2916 74.7052 39.2916H64.4066L56.7321 45.2756L49.0576 39.2916H5.2949C3.67022 39.2916 2.35303 37.9744 2.35303 36.3497V5.29484C2.35303 3.67015 3.67022 2.35297 5.2949 2.35297Z" fill="url(#paint0_linear_838_1401)"/>
    <path d="M56.732 47.6286C56.2079 47.6289 55.6986 47.4538 55.2855 47.1312L48.2487 41.6448H5.29484C2.37531 41.6445 0 39.2692 0 36.3497V5.29484C0 2.37531 2.37531 0 5.29484 0H74.7052C77.6247 0 80 2.37531 80 5.29484V36.3494C80 39.2689 77.6247 41.6444 74.7052 41.6444H65.2155L58.1787 47.1308C57.7656 47.4536 57.2563 47.6289 56.732 47.6286ZM5.29484 4.70594C5.13872 4.70614 4.98905 4.76826 4.87865 4.87865C4.76826 4.98905 4.70614 5.13872 4.70594 5.29484V36.3494C4.70606 36.5056 4.76814 36.6553 4.87854 36.7658C4.98895 36.8762 5.13867 36.9384 5.29484 36.9386H49.0575C49.5816 36.9385 50.0908 37.1136 50.5041 37.4359L56.732 42.2917L62.96 37.4359C63.3733 37.1137 63.8824 36.9386 64.4066 36.9386H74.7052C74.8613 36.9384 75.0111 36.8762 75.1215 36.7658C75.2319 36.6553 75.2939 36.5056 75.2941 36.3494V5.29484C75.2939 5.13872 75.2317 4.98905 75.1213 4.87865C75.0109 4.76826 74.8613 4.70614 74.7052 4.70594H5.29484ZM74.7052 73.3967H5.29484C2.37531 73.3967 0 71.0216 0 68.102V59.1355C0 56.2159 2.37531 53.8406 5.29484 53.8406H14.7845L21.8213 48.3542C22.2346 48.0319 22.7438 47.8569 23.268 47.8569C23.7921 47.8569 24.3013 48.0319 24.7147 48.3542L31.7514 53.8406H48.3659C49.6652 53.8406 50.7189 54.8942 50.7189 56.1936C50.7189 57.4928 49.6653 58.5466 48.3659 58.5466H30.9423C30.4182 58.5466 29.9091 58.3716 29.4958 58.0492L23.2678 53.1934L17.04 58.0489C16.6267 58.3712 16.1176 58.5462 15.5934 58.5462H5.29484C5.13872 58.5465 4.98905 58.6086 4.87865 58.719C4.76826 58.8294 4.70614 58.979 4.70594 59.1352V68.1017C4.70614 68.2578 4.76826 68.4075 4.87865 68.5179C4.98905 68.6283 5.13872 68.6904 5.29484 68.6906H74.7052C74.8613 68.6904 75.0109 68.6283 75.1213 68.5179C75.2317 68.4075 75.2939 68.2578 75.2941 68.1017V59.1352C75.2939 58.979 75.2317 58.8294 75.1213 58.719C75.0109 58.6086 74.8613 58.5465 74.7052 58.5462H65.0283C63.7291 58.5462 62.6753 57.4927 62.6753 56.1933C62.6753 54.8939 63.7289 53.8403 65.0283 53.8403H74.7052C77.6247 53.8403 80 56.2156 80 59.1352V68.1017C80 71.0216 77.6247 73.3967 74.7052 73.3967Z" fill="#EDEDED"/>
    <path d="M51.2238 14.0444H11.2065C9.90727 14.0444 8.85352 12.9908 8.85352 11.6914C8.85352 10.392 9.90711 9.33844 11.2065 9.33844H51.2238C52.523 9.33844 53.5768 10.392 53.5768 11.6914C53.5768 12.9906 52.5234 14.0444 51.2238 14.0444ZM31.2151 32.0311H11.2065C9.90727 32.0311 8.85352 30.9775 8.85352 29.6781C8.85352 28.3788 9.90711 27.3252 11.2065 27.3252H31.2152C32.5145 27.3252 33.5682 28.3788 33.5682 29.6781C33.5682 30.9775 32.5146 32.0311 31.2151 32.0311ZM64.4699 23.0375H11.2065C9.90727 23.0375 8.85352 21.9839 8.85352 20.6845C8.85352 19.3852 9.90711 18.3316 11.2065 18.3316H64.4701C65.7693 18.3316 66.823 19.3852 66.823 20.6845C66.823 21.9839 65.7695 23.0375 64.4699 23.0375Z" fill="url(#paint1_linear_838_1401)"/>
</svg>