<svg width="28" height="28" viewBox="0 0 28 28" fill="none" xmlns="http://www.w3.org/2000/svg">
<path d="M14.0206 3C15.4296 3 16.7808 3.55971 17.7771 4.556C18.7734 5.55228 19.3331 6.90354 19.3331 8.3125L19.3325 9.875H22.125C22.6223 9.875 23.0992 10.0725 23.4508 10.4242C23.8025 10.7758 24 11.2527 24 11.75V23C24 23.4973 23.8025 23.9742 23.4508 24.3258C23.0992 24.6775 22.6223 24.875 22.125 24.875H5.875C5.37772 24.875 4.90081 24.6775 4.54917 24.3258C4.19754 23.9742 4 23.4973 4 23V11.75C4 11.2527 4.19754 10.7758 4.54917 10.4242C4.90081 10.0725 5.37772 9.875 5.875 9.875H8.7075V8.3125C8.7075 7.61485 8.84491 6.92404 9.11189 6.27949C9.37887 5.63495 9.77018 5.04931 10.2635 4.556C10.7568 4.06268 11.3425 3.67137 11.987 3.40439C12.6315 3.13741 13.3224 3 14.02 3H14.0206ZM15.1169 14.875H13.2419V19.875H15.1169V14.875ZM14.0206 4.875C13.1089 4.875 12.2346 5.23716 11.5899 5.88182C10.9453 6.52648 10.5831 7.40082 10.5831 8.3125V9.875H17.4581V8.3125C17.4581 7.40082 17.096 6.52648 16.4513 5.88182C15.8066 5.23716 14.9323 4.875 14.0206 4.875Z" fill="black"/>
</svg>
