<svg width="12" height="7" viewBox="0 0 12 7" fill="none" xmlns="http://www.w3.org/2000/svg">
    <mask id="mask0_2104_717" style="mask-type:alpha" maskUnits="userSpaceOnUse" x="0" y="0" width="12" height="8">
        <path fill-rule="evenodd" clip-rule="evenodd" d="M11.1997 9.15527e-05V7.00099L0.790907 7.00099V9.15527e-05L11.1997 9.15527e-05Z" fill="white"/>
    </mask>
    <g mask="url(#mask0_2104_717)">
        <path fill-rule="evenodd" clip-rule="evenodd" d="M6.32191 6.89479C6.45791 6.85079 6.58691 6.78279 6.68191 6.66279L11.0359 1.21879C11.2939 0.895795 11.2429 0.424795 10.9189 0.164795C10.5949 -0.0942054 10.1239 -0.0422054 9.86491 0.281795L5.99591 5.11879L2.12691 0.281795C1.86791 -0.0422054 1.39491 -0.0942054 1.07191 0.164795C0.886912 0.312795 0.790913 0.530795 0.790913 0.749795C0.790913 0.915795 0.843912 1.08079 0.954912 1.21879L5.36191 6.72879C5.59691 7.02279 6.00591 7.08079 6.32191 6.89479Z" fill="#BFBFBF"/>
    </g>
</svg>
