<svg width="80" height="88" viewBox="0 0 80 88" fill="none" xmlns="http://www.w3.org/2000/svg">
    <path fill-rule="evenodd" clip-rule="evenodd"
        d="M55.1085 6.22398C51.1234 2.23883 45.7183 0 40.0825 0H40.08C37.2894 0 34.5261 0.549647 31.948 1.61756C29.3698 2.68547 27.0272 4.25074 25.054 6.22398C23.0807 8.19723 21.5155 10.5398 20.4476 13.118C19.3796 15.6961 18.83 18.4594 18.83 21.25V27.5H7.5C5.51088 27.5 3.60322 28.2902 2.1967 29.6967C0.790176 31.1032 0 33.0109 0 35V80C0 81.9891 0.790176 83.8968 2.1967 85.3033C3.60322 86.7098 5.51088 87.5 7.5 87.5H72.5C74.4891 87.5 76.3968 86.7098 77.8033 85.3033C79.2098 83.8968 80 81.9891 80 80V35C80 33.0109 79.2098 31.1032 77.8033 29.6967C76.3968 28.2902 74.4891 27.5 72.5 27.5H61.33L61.3325 21.25C61.3325 15.6142 59.0937 10.2091 55.1085 6.22398ZM30.3598 11.5273C32.9384 8.94866 36.4358 7.5 40.0825 7.5C43.7292 7.5 47.2266 8.94866 49.8052 11.5273C52.3838 14.1059 53.8325 17.6033 53.8325 21.25V27.5H26.3325V21.25C26.3325 17.6033 27.7812 14.1059 30.3598 11.5273ZM32.8267 52.8836C33.0767 53.2472 33.2727 53.6592 33.4148 54.1194H36.6364C36.5057 53.2614 36.2301 52.4773 35.8097 51.7671C35.3892 51.0569 34.8523 50.4432 34.1989 49.9262C33.5511 49.4092 32.8097 49.0114 31.9744 48.733C31.1392 48.4489 30.2386 48.3069 29.2727 48.3069C28.1307 48.3069 27.0739 48.5114 26.1023 48.9205C25.1307 49.3239 24.2841 49.9148 23.5625 50.6932C22.8409 51.466 22.2784 52.4063 21.875 53.5143C21.4773 54.6222 21.2784 55.8807 21.2784 57.2898C21.2784 59.1307 21.6165 60.7217 22.2926 62.0626C22.9744 63.3978 23.9205 64.429 25.1307 65.1563C26.3466 65.8779 27.7585 66.2387 29.3665 66.2387C30.8097 66.2387 32.0881 65.9461 33.2017 65.3609C34.3153 64.77 35.1903 63.929 35.8267 62.8381C36.4631 61.7472 36.7813 60.4546 36.7813 58.9603V56.8637H29.6989V59.3353H33.7206C33.7058 60.1357 33.53 60.8374 33.1932 61.4404C32.8409 62.0654 32.3381 62.5484 31.6847 62.8893C31.0369 63.2302 30.2699 63.4006 29.3835 63.4006C28.4063 63.4006 27.5483 63.1648 26.8097 62.6932C26.071 62.216 25.4943 61.52 25.0795 60.6052C24.6648 59.6904 24.4574 58.5739 24.4574 57.2557C24.4574 55.9489 24.6648 54.841 25.0795 53.9319C25.5 53.0171 26.0767 52.3239 26.8097 51.8523C27.5426 51.3807 28.3778 51.145 29.3153 51.145C29.8381 51.145 30.321 51.2131 30.7642 51.3495C31.2074 51.4802 31.5994 51.6762 31.9403 51.9376C32.2869 52.1989 32.5824 52.5143 32.8267 52.8836ZM43.7081 48.5455H39.8388V66.0001H42.8729V53.983H43.0348L47.8587 65.9489H50.1257L54.9496 54.0086H55.1115V66.0001H58.1456V48.5455H54.2763L49.0945 61.1932H48.8899L43.7081 48.5455Z"
        fill="black" />
</svg>