<svg width="30" height="30" viewBox="0 0 30 30" fill="none" xmlns="http://www.w3.org/2000/svg">
    <path d="M15 0C6.75 0 0 6.75 0 15C0 23.25 6.75 30 15 30C23.25 30 30 23.25 30 15C30 6.75 23.25 0 15 0ZM15 27.8571C7.92857 27.8571 2.14286 22.0714 2.14286 15C2.14286 7.92857 7.92857 2.14286 15 2.14286C22.0714 2.14286 27.8571 7.92857 27.8571 15C27.8571 22.1786 22.0714 27.8571 15 27.8571Z" fill="#828282"/>
    <path d="M8.57143 14.0358H21.4286C22.0714 14.0358 22.5 13.6072 22.5 12.9644C22.5 12.3215 22.0714 11.8929 21.4286 11.8929H11.8929L13.6071 10.6072C14.0357 10.2858 14.1429 9.5358 13.8214 9.10723C13.5 8.67866 12.75 8.57152 12.3214 8.89295L8.03571 12.1072C7.71429 12.4287 7.5 12.8572 7.60714 13.2858C7.71429 13.7144 8.14286 14.0358 8.57143 14.0358ZM21.4286 16.1787H8.57143C7.92857 16.1787 7.5 16.6072 7.5 17.2501C7.5 17.8929 7.92857 18.3215 8.57143 18.3215H18.1071L16.3929 19.6072C15.9643 19.9287 15.8571 20.6787 16.1786 21.1072C16.3929 21.4287 16.7143 21.5358 17.0357 21.5358C17.25 21.5358 17.4643 21.4287 17.6786 21.3215L21.9643 18.1072C22.2857 17.7858 22.5 17.3572 22.3929 16.9287C22.2857 16.5001 21.8571 16.1787 21.4286 16.1787Z" fill="#828282"/>
</svg>