<svg width="28" height="28" viewBox="0 0 28 28" fill="none" xmlns="http://www.w3.org/2000/svg">
<path d="M21.9167 17.2083L20.2084 15.5C20.875 14.875 21.5 14.1667 22 13.375C22.1667 13.0833 22.0834 12.7083 21.7917 12.5C21.5 12.3333 21.125 12.4167 20.9167 12.7083C19.4167 15.1667 16.8334 16.625 13.9584 16.625C11.125 16.625 8.50003 15.1667 7.04169 12.75C6.87503 12.4583 6.45837 12.375 6.16669 12.5417C5.87503 12.7083 5.79169 13.125 5.95837 13.4167C6.45837 14.2083 7.04169 14.9167 7.75003 15.5417L6.08337 17.2083C5.83337 17.4583 5.83337 17.8333 6.08337 18.0833C6.20837 18.2083 6.37503 18.25 6.54169 18.25C6.70835 18.25 6.87503 18.2083 7.00003 18.0833L8.79169 16.2917C9.54169 16.7917 10.375 17.2083 11.25 17.4583L10.5834 20C10.5 20.3333 10.7084 20.6667 11.0417 20.75C11.0834 20.75 11.1667 20.7917 11.2084 20.7917C11.5 20.7917 11.75 20.625 11.7917 20.3333L12.5 17.75C13 17.8333 13.5 17.875 14.0417 17.875C14.5834 17.875 15.125 17.8333 15.6667 17.75L16.375 20.3333C16.4584 20.625 16.7084 20.7917 16.9584 20.7917C17 20.7917 17.0834 20.7917 17.125 20.75C17.4584 20.6667 17.6667 20.3333 17.5834 20L16.9167 17.4167C17.7917 17.1667 18.5834 16.75 19.3334 16.25L21.125 18.0417C21.25 18.1667 21.4167 18.2083 21.5834 18.2083C21.75 18.2083 21.9167 18.1667 22.0417 18.0417C22.1667 17.8333 22.1667 17.4583 21.9167 17.2083Z" fill="#333333"/>
</svg>
