<svg width="67" height="66" viewBox="0 0 67 66" fill="none" xmlns="http://www.w3.org/2000/svg">
    <defs>
        <linearGradient id="paint0_linear_329_994" x1="0.5" y1="0" x2="16.8355" y2="76.5921" gradientUnits="userSpaceOnUse">
            <stop stop-color="#8FFA3B"/>
            <stop offset="1" stop-color="#F2DD21"/>
        </linearGradient>
    </defs>
    <path d="M63.9054 20.1541C62.2432 16.2241 59.8642 12.6953 56.8345 9.66558C53.8048 6.63588 50.2759 4.25682 46.346 2.59457C42.2757 0.872925 37.9537 0 33.5 0C29.0464 0 24.7243 0.872925 20.654 2.5945C16.7241 4.25674 13.1952 6.6358 10.1655 9.6655C7.13572 12.6952 4.75674 16.2241 3.09449 20.154C1.37285 24.2243 0.5 28.5464 0.5 33C0.5 37.4536 1.37292 41.7757 3.09449 45.8459C4.75674 49.7759 7.1358 53.3046 10.1655 56.3344C13.1953 59.3641 16.7241 61.743 20.654 63.4052C24.7243 65.1268 29.0464 65.9997 33.5 65.9997C37.9537 65.9997 42.2757 65.1268 46.346 63.4053C50.2759 61.7431 53.8048 59.364 56.8345 56.3344C59.8643 53.3047 62.2433 49.7759 63.9055 45.846C65.6271 41.7758 66.5 37.4537 66.5 33.0001C66.5 28.5464 65.627 24.2243 63.9054 20.1541ZM49.4663 26.0814L31.518 44.0297C30.9503 44.5973 30.2063 44.8811 29.4623 44.8811C28.8999 44.8815 28.3494 44.7185 27.878 44.4117C27.873 44.4084 27.8677 44.4055 27.8627 44.4022C27.8151 44.3707 27.7684 44.3372 27.7223 44.3026C27.6107 44.2192 27.5053 44.128 27.4067 44.0297L17.5336 34.1566C16.3983 33.0213 16.3983 31.1806 17.5336 30.0453C18.6688 28.9099 20.5095 28.91 21.6449 30.0453L29.4623 37.8627L45.355 21.97C46.4903 20.8347 48.331 20.8347 49.4663 21.97C50.6016 23.1053 50.6016 24.946 49.4663 26.0814Z" fill="url(#paint0_linear_329_994)"/>
</svg>